<svg xmlns="http://www.w3.org/2000/svg" width="185.403" height="79.268">
    <g data-name="Gruppe 280">
        <path data-name="Pfad 3218" d="M71.979 46.572v-29.22a13.926 13.926 0 0 1 3.583-9.953 13.122 13.122 0 0 1 18.483 0 13.988 13.988 0 0 1 3.559 9.953v29.22h3.891v-29.22a13.984 13.984 0 0 1 3.56-9.953 13.179 13.179 0 0 1 18.53 0 13.931 13.931 0 0 1 3.583 9.953v29.22h3.986v-27.99q0-8.652-4.579-13.617T114.165 0a15.633 15.633 0 0 0-8.3 2.2 19.2 19.2 0 0 0-6.311 6.69 18.3 18.3 0 0 0-6.192-6.667A15.722 15.722 0 0 0 84.986.001q-7.83 0-12.361 4.964t-4.54 13.617v27.99Zm68.837-13.806a24.54 24.54 0 0 0 5.125 7.8 22.374 22.374 0 0 0 7.473 5.107 23.263 23.263 0 0 0 17.7 0 22.37 22.37 0 0 0 7.474-5.107 23.55 23.55 0 0 0 5.054-7.707 25.032 25.032 0 0 0 0-18.3 23.55 23.55 0 0 0-5.054-7.707 23.032 23.032 0 0 0-7.474-5.083 22.978 22.978 0 0 0-17.7 0 23.037 23.037 0 0 0-7.473 5.083 25.178 25.178 0 0 0-5.125 7.825 24.16 24.16 0 0 0 0 18.085Zm7.949-23.357a18.521 18.521 0 0 1 26.929-.023 19.908 19.908 0 0 1 5.5 14.256 19.951 19.951 0 0 1-5.5 14.208 18.468 18.468 0 0 1-26.929.024 19.88 19.88 0 0 1-5.529-14.232 19.882 19.882 0 0 1 5.529-14.232Z" fill="#464545"/>
        <path data-name="Pfad 3219" d="M58.443 46.572V26.336a42.6 42.6 0 0 0-.759-8.629 20.2 20.2 0 0 0-2.42-6.359 23.7 23.7 0 0 0-8.542-8.416A22.7 22.7 0 0 0 35.333.001a22.022 22.022 0 0 0-16.49 6.714q-6.525 6.714-6.525 17.021a24.789 24.789 0 0 0 1.661 9.055 23.757 23.757 0 0 0 4.84 7.683 21.214 21.214 0 0 0 7.45 5.177 23.894 23.894 0 0 0 9.253 1.773 23.232 23.232 0 0 0 8.471-1.542 23.54 23.54 0 0 0 7.379-4.657v-5.2a23.984 23.984 0 0 1-7.355 5.744 19.167 19.167 0 0 1-8.494 1.915A18 18 0 0 1 21.88 38.01a20.042 20.042 0 0 1-5.386-14.374 19.937 19.937 0 0 1 5.457-14.327 17.993 17.993 0 0 1 13.572-5.721q8.636 0 13.785 6.076t5.148 16.388v20.52Z" fill="#004c9b"/>
        <path data-name="Pfad 3220" d="M4.619 46.572V.85H.633v45.722Z" fill="#464545"/>
        <g data-name="Gruppe 279" fill="#464545">
            <path data-name="Pfad 3221" d="M.171 56.162h1.067v7.367h3.53v.9h-4.6Z"/>
            <path data-name="Pfad 3222" d="M6.423 61.654a1.9 1.9 0 0 0 2.035 2.06 3.9 3.9 0 0 0 1.642-.306l.184.772a4.8 4.8 0 0 1-1.973.368 2.755 2.755 0 0 1-2.918-2.991c0-1.79 1.054-3.2 2.783-3.2a2.514 2.514 0 0 1 2.452 2.8 4.127 4.127 0 0 1-.037.5Zm3.163-.772a1.536 1.536 0 0 0-1.5-1.753 1.787 1.787 0 0 0-1.655 1.753Z"/>
            <path data-name="Pfad 3223" d="M13.066 56.824a.668.668 0 0 1-1.336 0 .657.657 0 0 1 .674-.674.64.64 0 0 1 .662.674Zm-1.2 7.6v-5.933h1.077v5.933Z"/>
            <path data-name="Pfad 3224" d="M14.586 64.425c.025-.4.049-1.005.049-1.532v-7.172h1.066v3.727h.025a2.21 2.21 0 0 1 2.023-1.091c1.471 0 2.513 1.226 2.5 3.028 0 2.121-1.336 3.175-2.66 3.175a2.114 2.114 0 0 1-1.986-1.115h-.037l-.049.981Zm1.116-2.378a2.02 2.02 0 0 0 .049.392 1.665 1.665 0 0 0 1.618 1.263c1.128 0 1.8-.919 1.8-2.28 0-1.189-.613-2.206-1.765-2.206a1.72 1.72 0 0 0-1.643 1.324 2.119 2.119 0 0 0-.061.441Z"/>
            <path data-name="Pfad 3225" d="M21.511 60.097c0-.613-.012-1.115-.049-1.606h.956l.061.981h.025a2.182 2.182 0 0 1 1.962-1.116c.821 0 2.1.491 2.1 2.525v3.543h-1.083v-3.419c0-.956-.355-1.753-1.373-1.753a1.533 1.533 0 0 0-1.447 1.1 1.553 1.553 0 0 0-.074.5v3.568h-1.078Z"/>
            <path data-name="Pfad 3226" d="M29.415 56.824a.668.668 0 0 1-1.336 0 .657.657 0 0 1 .674-.674.641.641 0 0 1 .662.674Zm-1.2 7.6v-5.933h1.079v5.933Z"/>
            <path data-name="Pfad 3227" d="m30.311 63.799 2.685-3.494c.257-.318.5-.6.772-.919v-.025h-3.212v-.87h4.52l-.012.674-2.648 3.445c-.245.331-.49.625-.76.932v.025h3.469v.858h-4.818Z"/>
            <path data-name="Pfad 3228" d="M38.635 60.71v.8h-3.028v-.8Z"/>
            <path data-name="Pfad 3229" d="M40.905 56.162v8.263h-1.07v-8.263Z"/>
            <path data-name="Pfad 3230" d="M42.63 60.097c0-.613-.012-1.115-.049-1.606h.956l.061.981h.025a2.181 2.181 0 0 1 1.961-1.116c.821 0 2.1.491 2.1 2.525v3.543h-1.079v-3.419c0-.956-.355-1.753-1.373-1.753a1.582 1.582 0 0 0-1.52 1.606v3.568h-1.079Z"/>
            <path data-name="Pfad 3231" d="M49.188 63.321a2.827 2.827 0 0 0 1.422.429c.784 0 1.152-.392 1.152-.883 0-.515-.306-.8-1.1-1.091-1.066-.38-1.569-.969-1.569-1.68a1.83 1.83 0 0 1 2.047-1.741 2.961 2.961 0 0 1 1.459.368l-.27.784a2.309 2.309 0 0 0-1.213-.343c-.638 0-.993.368-.993.809 0 .49.355.711 1.128 1.005 1.03.392 1.557.907 1.557 1.79 0 1.042-.809 1.777-2.219 1.777a3.387 3.387 0 0 1-1.667-.4Z"/>
            <path data-name="Pfad 3232" d="M55.39 56.787v1.7h1.545v.821H55.39v3.2c0 .735.208 1.153.809 1.153a2.417 2.417 0 0 0 .625-.074l.049.809a2.639 2.639 0 0 1-.956.147 1.5 1.5 0 0 1-1.164-.454 2.2 2.2 0 0 1-.417-1.544v-3.229h-.92v-.821h.92v-1.422Z"/>
            <path data-name="Pfad 3233" d="M59.251 56.824a.668.668 0 0 1-1.336 0 .657.657 0 0 1 .674-.674.641.641 0 0 1 .662.674Zm-1.2 7.6v-5.933h1.079v5.933Z"/>
            <path data-name="Pfad 3234" d="M62.122 56.787v1.7h1.545v.821h-1.545v3.2c0 .735.208 1.153.809 1.153a2.42 2.42 0 0 0 .626-.074l.049.809a2.639 2.639 0 0 1-.956.147 1.5 1.5 0 0 1-1.164-.454 2.2 2.2 0 0 1-.417-1.544v-3.229h-.92v-.821h.92v-1.422Z"/>
            <path data-name="Pfad 3235" d="M69.743 62.806c0 .613.012 1.152.049 1.618h-.956l-.061-.969h-.025a2.232 2.232 0 0 1-1.962 1.1c-.932 0-2.047-.514-2.047-2.6v-3.469h1.079v3.285c0 1.128.343 1.888 1.324 1.888a1.56 1.56 0 0 0 1.422-.981 1.577 1.577 0 0 0 .1-.552v-3.641h1.079Z"/>
            <path data-name="Pfad 3236" d="M72.734 56.787v1.7h1.544v.821h-1.544v3.2c0 .735.208 1.153.809 1.153a2.414 2.414 0 0 0 .625-.074l.049.809a2.641 2.641 0 0 1-.956.147 1.5 1.5 0 0 1-1.165-.454 2.2 2.2 0 0 1-.417-1.544v-3.229h-.919v-.821h.919v-1.422Z"/>
            <path data-name="Pfad 3237" d="M79.236 64.425v-5.112h-.833v-.821h.833v-.282a2.8 2.8 0 0 1 .687-2.071 2.064 2.064 0 0 1 1.446-.552 2.511 2.511 0 0 1 .92.171l-.147.834a1.611 1.611 0 0 0-.686-.134c-.919 0-1.152.809-1.152 1.716v.319h1.434v.821h-1.434v5.112Z"/>
            <path data-name="Pfad 3238" d="M87.572 62.807c0 .613.012 1.152.049 1.618h-.956l-.061-.969h-.024a2.233 2.233 0 0 1-1.962 1.1c-.932 0-2.047-.514-2.047-2.6v-3.469h1.079v3.285c0 1.128.343 1.888 1.324 1.888a1.56 1.56 0 0 0 1.422-.981 1.578 1.578 0 0 0 .1-.552v-3.641h1.079Zm-4.2-5.995a.628.628 0 0 1 .625-.625.6.6 0 0 1 .6.625.607.607 0 0 1-.6.625.62.62 0 0 1-.63-.625Zm2.28 0a.617.617 0 0 1 .613-.625.6.6 0 0 1 .6.625.607.607 0 1 1-1.214 0Z"/>
            <path data-name="Pfad 3239" d="M89.263 60.342c0-.7-.012-1.3-.049-1.851h.944l.037 1.164h.049a1.781 1.781 0 0 1 1.643-1.3 1.165 1.165 0 0 1 .306.037v1.017a1.621 1.621 0 0 0-.368-.037 1.513 1.513 0 0 0-1.447 1.385 3.04 3.04 0 0 0-.049.5v3.163h-1.066Z"/>
            <path data-name="Pfad 3240" d="m98.279 61.826-.858 2.6h-1.1l2.807-8.263h1.281l2.82 8.263h-1.14l-.883-2.6Zm2.709-.833-.809-2.378c-.184-.539-.306-1.03-.429-1.508h-.025c-.123.49-.257.993-.417 1.5l-.809 2.391Z"/>
            <path data-name="Pfad 3241" d="M109.42 58.491c-.024.429-.049.907-.049 1.63v3.445a3.412 3.412 0 0 1-.846 2.709 3.145 3.145 0 0 1-2.158.711 3.827 3.827 0 0 1-1.973-.49l.269-.822a3.346 3.346 0 0 0 1.741.466c1.1 0 1.912-.576 1.912-2.072v-.663h-.025a2.119 2.119 0 0 1-1.888.993 2.652 2.652 0 0 1-2.527-2.893 2.848 2.848 0 0 1 2.672-3.15 1.972 1.972 0 0 1 1.851 1.03h.025l.049-.895Zm-1.115 2.342a1.528 1.528 0 0 0-.062-.491 1.554 1.554 0 0 0-1.508-1.14c-1.03 0-1.765.87-1.765 2.243 0 1.164.589 2.133 1.753 2.133a1.578 1.578 0 0 0 1.5-1.1 1.876 1.876 0 0 0 .086-.576Z"/>
            <path data-name="Pfad 3242" d="M111.062 60.342c0-.7-.012-1.3-.049-1.851h.944l.037 1.164h.049a1.78 1.78 0 0 1 1.642-1.3 1.162 1.162 0 0 1 .306.037v1.017a1.619 1.619 0 0 0-.368-.037 1.514 1.514 0 0 0-1.447 1.385 3.072 3.072 0 0 0-.049.5v3.163h-1.066Z"/>
            <path data-name="Pfad 3243" d="m118.259 64.424-.086-.748h-.037a2.209 2.209 0 0 1-1.814.882 1.69 1.69 0 0 1-1.814-1.7c0-1.434 1.274-2.219 3.567-2.207v-.122a1.223 1.223 0 0 0-1.348-1.373 2.953 2.953 0 0 0-1.544.442l-.246-.711a3.684 3.684 0 0 1 1.949-.527c1.814 0 2.255 1.239 2.255 2.427v2.218a8.355 8.355 0 0 0 .1 1.422Zm-.159-3.028c-1.177-.025-2.513.184-2.513 1.336a.954.954 0 0 0 1.017 1.03 1.476 1.476 0 0 0 1.435-.993 1.138 1.138 0 0 0 .061-.344Z"/>
            <path data-name="Pfad 3244" d="M120.782 60.342c0-.7-.012-1.3-.049-1.851h.944l.037 1.164h.049a1.78 1.78 0 0 1 1.642-1.3 1.162 1.162 0 0 1 .306.037v1.017a1.619 1.619 0 0 0-.368-.037 1.514 1.514 0 0 0-1.447 1.385 3.072 3.072 0 0 0-.049.5v3.163h-1.066Z"/>
            <path data-name="Pfad 3245" d="M125.293 61.654a1.9 1.9 0 0 0 2.035 2.06 3.9 3.9 0 0 0 1.643-.306l.184.772a4.8 4.8 0 0 1-1.974.368 2.755 2.755 0 0 1-2.918-2.991c0-1.79 1.054-3.2 2.783-3.2a2.514 2.514 0 0 1 2.452 2.8 4.056 4.056 0 0 1-.036.5Zm3.163-.772a1.536 1.536 0 0 0-1.5-1.753 1.788 1.788 0 0 0-1.655 1.753Z"/>
            <path data-name="Pfad 3246" d="M130.738 60.097c0-.613-.012-1.115-.049-1.606h.956l.061.981h.025a2.181 2.181 0 0 1 1.961-1.116c.821 0 2.1.491 2.1 2.525v3.543h-1.079v-3.419c0-.956-.355-1.753-1.373-1.753a1.533 1.533 0 0 0-1.446 1.1 1.554 1.554 0 0 0-.073.5v3.568h-1.083Z"/>
            <path data-name="Pfad 3247" d="M138.74 56.787v1.7h1.544v.821h-1.544v3.2c0 .735.208 1.153.809 1.153a2.419 2.419 0 0 0 .625-.074l.049.809a2.642 2.642 0 0 1-.956.147 1.5 1.5 0 0 1-1.164-.454 2.2 2.2 0 0 1-.417-1.544v-3.229h-.919v-.821h.919v-1.422Z"/>
            <path data-name="Pfad 3248" d="m141.828 58.491.785 3.015c.172.662.331 1.275.441 1.888h.037c.135-.6.331-1.238.527-1.875l.968-3.028h.907l.92 2.967c.221.711.392 1.336.527 1.937h.037a17.683 17.683 0 0 1 .453-1.924l.846-2.979h1.066l-1.912 5.933h-.981l-.907-2.832a19.78 19.78 0 0 1-.527-1.949h-.024a17.663 17.663 0 0 1-.539 1.962l-.956 2.82h-.984l-1.79-5.933Z"/>
            <path data-name="Pfad 3249" d="M151.524 56.824a.668.668 0 0 1-1.336 0 .657.657 0 0 1 .674-.674.64.64 0 0 1 .662.674Zm-1.2 7.6v-5.933h1.079v5.933Z"/>
            <path data-name="Pfad 3250" d="M157.321 64.204a3.978 3.978 0 0 1-1.7.343 2.819 2.819 0 0 1-2.954-3.028 3.015 3.015 0 0 1 3.187-3.15 3.606 3.606 0 0 1 1.5.306l-.245.833a2.5 2.5 0 0 0-1.251-.282 2.237 2.237 0 0 0-.037 4.462 3.064 3.064 0 0 0 1.324-.294Z"/>
            <path data-name="Pfad 3251" d="M159.552 61.213h.025c.147-.208.355-.466.527-.674l1.741-2.047h1.3l-2.292 2.44 2.611 3.494h-1.312l-2.047-2.844-.552.613v2.232h-1.066v-8.7h1.066Z"/>
            <path data-name="Pfad 3252" d="M164.137 55.721h1.079v8.7h-1.079Z"/>
            <path data-name="Pfad 3253" d="M171.895 62.806c0 .613.012 1.152.049 1.618h-.956l-.061-.969h-.024a2.233 2.233 0 0 1-1.962 1.1c-.932 0-2.047-.514-2.047-2.6v-3.469h1.079v3.285c0 1.128.343 1.888 1.324 1.888a1.56 1.56 0 0 0 1.422-.981 1.576 1.576 0 0 0 .1-.552v-3.641h1.079Z"/>
            <path data-name="Pfad 3254" d="M173.586 60.097c0-.613-.012-1.115-.049-1.606h.956l.061.981h.024a2.182 2.182 0 0 1 1.961-1.116c.821 0 2.1.491 2.1 2.525v3.543h-1.079v-3.419c0-.956-.356-1.753-1.373-1.753a1.534 1.534 0 0 0-1.446 1.1 1.555 1.555 0 0 0-.073.5v3.568h-1.079Z"/>
            <path data-name="Pfad 3255" d="M185.404 58.491c-.024.429-.049.907-.049 1.63v3.445a3.413 3.413 0 0 1-.846 2.709 3.145 3.145 0 0 1-2.158.711 3.829 3.829 0 0 1-1.973-.49l.27-.822a3.346 3.346 0 0 0 1.741.466c1.1 0 1.912-.576 1.912-2.072v-.663h-.024a2.119 2.119 0 0 1-1.888.993 2.652 2.652 0 0 1-2.525-2.893 2.848 2.848 0 0 1 2.672-3.15 1.972 1.972 0 0 1 1.851 1.03h.025l.049-.895Zm-1.115 2.342a1.527 1.527 0 0 0-.062-.491 1.554 1.554 0 0 0-1.508-1.14c-1.03 0-1.766.87-1.766 2.243 0 1.164.589 2.133 1.753 2.133a1.577 1.577 0 0 0 1.5-1.1 1.884 1.884 0 0 0 .086-.576Z"/>
            <path data-name="Pfad 3256" d="M1.336 71.533a.668.668 0 0 1-1.336 0 .657.657 0 0 1 .674-.674.64.64 0 0 1 .662.674Zm-1.2 7.6V73.2h1.081v5.933Z"/>
            <path data-name="Pfad 3257" d="M2.905 74.806c0-.613-.012-1.115-.049-1.606h.956l.061.981h.025a2.182 2.182 0 0 1 1.961-1.116c.822 0 2.1.491 2.1 2.525v3.543H6.877v-3.419c0-.956-.355-1.753-1.373-1.753a1.533 1.533 0 0 0-1.446 1.1 1.553 1.553 0 0 0-.074.5v3.568H2.905Z"/>
            <path data-name="Pfad 3258" d="M13.716 71.778h-2.513v-.907h6.117v.907h-2.525v7.355h-1.079Z"/>
            <path data-name="Pfad 3259" d="M18.103 75.051c0-.7-.012-1.3-.049-1.851h.944l.037 1.164h.049a1.78 1.78 0 0 1 1.642-1.3 1.17 1.17 0 0 1 .307.037v1.017a1.625 1.625 0 0 0-.368-.037 1.513 1.513 0 0 0-1.446 1.385 3.036 3.036 0 0 0-.049.5v3.163h-1.067Z"/>
            <path data-name="Pfad 3260" d="m25.299 79.133-.085-.748h-.037a2.211 2.211 0 0 1-1.814.882 1.69 1.69 0 0 1-1.814-1.7c0-1.434 1.275-2.219 3.567-2.207v-.122a1.223 1.223 0 0 0-1.348-1.373 2.953 2.953 0 0 0-1.544.442l-.245-.711a3.684 3.684 0 0 1 1.949-.527c1.814 0 2.256 1.239 2.256 2.427v2.218a8.357 8.357 0 0 0 .1 1.422Zm-.159-3.028c-1.177-.025-2.513.184-2.513 1.336a.954.954 0 0 0 1.017 1.03 1.476 1.476 0 0 0 1.434-.993 1.126 1.126 0 0 0 .061-.344Z"/>
            <path data-name="Pfad 3261" d="M27.824 74.806c0-.613-.012-1.115-.049-1.606h.956l.061.981h.025a2.182 2.182 0 0 1 1.962-1.116c.821 0 2.1.491 2.1 2.525v3.543H31.8v-3.419c0-.956-.355-1.753-1.373-1.753a1.533 1.533 0 0 0-1.447 1.1 1.553 1.553 0 0 0-.074.5v3.568h-1.082Z"/>
            <path data-name="Pfad 3262" d="M34.382 78.03a2.827 2.827 0 0 0 1.422.429c.785 0 1.152-.392 1.152-.883 0-.515-.306-.8-1.1-1.091-1.066-.38-1.569-.969-1.569-1.68a1.83 1.83 0 0 1 2.047-1.741 2.961 2.961 0 0 1 1.459.368l-.27.784a2.309 2.309 0 0 0-1.214-.343c-.637 0-.993.368-.993.809 0 .49.355.711 1.128 1.005 1.03.392 1.557.907 1.557 1.79 0 1.042-.809 1.777-2.219 1.777a3.387 3.387 0 0 1-1.667-.4Z"/>
            <path data-name="Pfad 3263" d="M39.394 79.134v-5.112h-.833v-.821h.833v-.282a2.8 2.8 0 0 1 .687-2.071 2.064 2.064 0 0 1 1.446-.552 2.513 2.513 0 0 1 .92.171l-.147.834a1.611 1.611 0 0 0-.686-.134c-.919 0-1.152.809-1.152 1.716v.319h1.434v.821h-1.435v5.112Z"/>
            <path data-name="Pfad 3264" d="M48.134 76.114a2.9 2.9 0 0 1-2.954 3.151 2.821 2.821 0 0 1-2.844-3.052 2.9 2.9 0 0 1 2.942-3.15 2.81 2.81 0 0 1 2.856 3.051Zm-4.708.062c0 1.3.748 2.28 1.8 2.28 1.03 0 1.8-.969 1.8-2.3 0-1.005-.5-2.28-1.777-2.28s-1.822 1.175-1.822 2.303Z"/>
            <path data-name="Pfad 3265" d="M49.396 75.051c0-.7-.012-1.3-.049-1.851h.944l.037 1.164h.049a1.78 1.78 0 0 1 1.642-1.3 1.166 1.166 0 0 1 .306.037v1.017a1.62 1.62 0 0 0-.368-.037 1.513 1.513 0 0 0-1.446 1.385 3.035 3.035 0 0 0-.049.5v3.163h-1.067Z"/>
            <path data-name="Pfad 3266" d="M53.302 74.806c0-.613-.012-1.115-.049-1.606h.944l.049.956h.037a2.046 2.046 0 0 1 1.863-1.091 1.754 1.754 0 0 1 1.679 1.189h.025a2.453 2.453 0 0 1 .662-.772 2.025 2.025 0 0 1 1.312-.417c.784 0 1.949.515 1.949 2.575v3.494h-1.051v-3.359c0-1.14-.417-1.827-1.287-1.827a1.4 1.4 0 0 0-1.275.981 1.786 1.786 0 0 0-.085.539v3.665h-1.054v-3.555c0-.944-.417-1.63-1.238-1.63a1.608 1.608 0 0 0-1.422 1.606v3.58h-1.059Z"/>
            <path data-name="Pfad 3267" d="m66.716 79.133-.086-.748h-.04a2.209 2.209 0 0 1-1.814.882 1.69 1.69 0 0 1-1.814-1.7c0-1.434 1.275-2.219 3.567-2.207v-.122a1.223 1.223 0 0 0-1.348-1.373 2.954 2.954 0 0 0-1.545.442l-.245-.711a3.682 3.682 0 0 1 1.949-.527c1.814 0 2.255 1.239 2.255 2.427v2.218a8.357 8.357 0 0 0 .1 1.422Zm-.159-3.028c-1.177-.025-2.513.184-2.513 1.336a.954.954 0 0 0 1.017 1.03 1.476 1.476 0 0 0 1.434-.993 1.126 1.126 0 0 0 .061-.344Z"/>
            <path data-name="Pfad 3268" d="M70.54 71.496v1.7h1.545v.821H70.54v3.2c0 .735.208 1.153.809 1.153a2.42 2.42 0 0 0 .625-.074l.049.809a2.639 2.639 0 0 1-.956.147 1.5 1.5 0 0 1-1.164-.454 2.2 2.2 0 0 1-.417-1.544v-3.229h-.92v-.821h.92v-1.422Z"/>
            <path data-name="Pfad 3269" d="M74.401 71.533a.668.668 0 0 1-1.336 0 .657.657 0 0 1 .674-.674.64.64 0 0 1 .662.674Zm-1.2 7.6V73.2h1.079v5.933Z"/>
            <path data-name="Pfad 3270" d="M81.339 76.114a2.9 2.9 0 0 1-2.954 3.151 2.821 2.821 0 0 1-2.844-3.052 2.9 2.9 0 0 1 2.942-3.15 2.81 2.81 0 0 1 2.856 3.051Zm-4.708.062c0 1.3.748 2.28 1.8 2.28 1.03 0 1.8-.969 1.8-2.3 0-1.005-.5-2.28-1.777-2.28s-1.822 1.175-1.822 2.303Z"/>
            <path data-name="Pfad 3271" d="M82.601 74.806c0-.613-.012-1.115-.049-1.606h.956l.061.981h.025a2.182 2.182 0 0 1 1.961-1.116c.822 0 2.1.491 2.1 2.525v3.543h-1.079v-3.419c0-.956-.355-1.753-1.373-1.753a1.533 1.533 0 0 0-1.446 1.1 1.552 1.552 0 0 0-.074.5v3.568h-1.079Z"/>
            <path data-name="Pfad 3272" d="M89.159 78.03a2.828 2.828 0 0 0 1.422.429c.784 0 1.152-.392 1.152-.883 0-.515-.306-.8-1.1-1.091-1.066-.38-1.569-.969-1.569-1.68a1.83 1.83 0 0 1 2.047-1.741 2.961 2.961 0 0 1 1.459.368l-.27.784a2.309 2.309 0 0 0-1.213-.343c-.637 0-.993.368-.993.809 0 .49.356.711 1.128 1.005 1.03.392 1.557.907 1.557 1.79 0 1.042-.809 1.777-2.219 1.777a3.389 3.389 0 0 1-1.667-.4Z"/>
            <path data-name="Pfad 3273" d="M99.431 76.117a2.9 2.9 0 0 1-2.954 3.151 2.821 2.821 0 0 1-2.844-3.052 2.9 2.9 0 0 1 2.942-3.15 2.81 2.81 0 0 1 2.856 3.051Zm-4.707.062c0 1.3.747 2.28 1.8 2.28 1.03 0 1.8-.969 1.8-2.3 0-1.005-.5-2.28-1.778-2.28s-1.822 1.172-1.822 2.3Zm.049-4.658a.628.628 0 0 1 .625-.625.6.6 0 0 1 .6.625.607.607 0 0 1-.6.625.62.62 0 0 1-.625-.626Zm2.28 0a.617.617 0 0 1 .613-.625.6.6 0 0 1 .6.625.607.607 0 1 1-1.214 0Z"/>
            <path data-name="Pfad 3274" d="M101.759 75.922h.025c.147-.208.355-.466.527-.674l1.741-2.047h1.3l-2.292 2.44 2.611 3.494h-1.312l-2.047-2.844-.552.613v2.232h-1.071v-8.7h1.066Z"/>
            <path data-name="Pfad 3275" d="M111.713 76.114a2.9 2.9 0 0 1-2.954 3.151 2.821 2.821 0 0 1-2.844-3.052 2.9 2.9 0 0 1 2.942-3.15 2.81 2.81 0 0 1 2.856 3.051Zm-4.707.062c0 1.3.748 2.28 1.8 2.28 1.03 0 1.8-.969 1.8-2.3 0-1.005-.5-2.28-1.777-2.28s-1.828 1.175-1.828 2.303Z"/>
            <path data-name="Pfad 3276" d="M112.974 74.806c0-.613-.012-1.115-.049-1.606h.956l.061.981h.025a2.182 2.182 0 0 1 1.961-1.116c.821 0 2.1.491 2.1 2.525v3.543h-1.079v-3.419c0-.956-.356-1.753-1.373-1.753a1.533 1.533 0 0 0-1.446 1.1 1.552 1.552 0 0 0-.074.5v3.568h-1.079Z"/>
            <path data-name="Pfad 3277" d="M125.048 76.114a2.9 2.9 0 0 1-2.954 3.151 2.821 2.821 0 0 1-2.844-3.052 2.9 2.9 0 0 1 2.942-3.15 2.81 2.81 0 0 1 2.856 3.051Zm-4.707.062c0 1.3.748 2.28 1.8 2.28 1.03 0 1.8-.969 1.8-2.3 0-1.005-.5-2.28-1.777-2.28s-1.823 1.175-1.823 2.303Z"/>
            <path data-name="Pfad 3278" d="M126.31 74.806c0-.613-.012-1.115-.049-1.606h.944l.049.956h.037a2.045 2.045 0 0 1 1.863-1.091 1.754 1.754 0 0 1 1.68 1.189h.024a2.445 2.445 0 0 1 .662-.772 2.024 2.024 0 0 1 1.312-.417c.784 0 1.949.515 1.949 2.575v3.494h-1.054v-3.359c0-1.14-.417-1.827-1.287-1.827a1.4 1.4 0 0 0-1.275.981 1.773 1.773 0 0 0-.086.539v3.665h-1.054v-3.555c0-.944-.416-1.63-1.238-1.63a1.608 1.608 0 0 0-1.422 1.606v3.58h-1.054Z"/>
            <path data-name="Pfad 3279" d="M137.636 71.533a.668.668 0 0 1-1.336 0 .658.658 0 0 1 .674-.674.64.64 0 0 1 .662.674Zm-1.2 7.6V73.2h1.079v5.933Z"/>
            <path data-name="Pfad 3280" d="M139.806 76.363a1.9 1.9 0 0 0 2.035 2.06 3.9 3.9 0 0 0 1.643-.306l.184.772a4.8 4.8 0 0 1-1.973.368 2.755 2.755 0 0 1-2.918-2.991c0-1.79 1.054-3.2 2.783-3.2a2.514 2.514 0 0 1 2.451 2.8 3.989 3.989 0 0 1-.037.5Zm3.163-.772a1.536 1.536 0 0 0-1.5-1.753 1.788 1.788 0 0 0-1.655 1.753Z"/>
            <path data-name="Pfad 3281" d="M145.248 74.806c0-.613-.012-1.115-.049-1.606h.956l.061.981h.025a2.182 2.182 0 0 1 1.962-1.116c.821 0 2.1.491 2.1 2.525v3.543h-1.079v-3.419c0-.956-.355-1.753-1.373-1.753a1.534 1.534 0 0 0-1.446 1.1 1.562 1.562 0 0 0-.074.5v3.568h-1.079Z"/>
        </g>
    </g>
</svg>
